PathFileType	4	(X/Y/Z)	 s06c0301.trc
DataRate	CameraRate	NumFrames	NumMarkers	Units	OrigDataRate	OrigDataStartFrame	OrigNumFrames
200	200	7	48	mm	200	751	2000
Frame#	Time	racr			lacr			c7			jug			rlel			rdr			llel			ldr			s2			lic			ric			lasi			rasi			rpsi			lpsi			rgt			lgt			rth1			rth2			rth3			rth4			rlfc			rmfc			rsh1			rsh2			rsh3			rsh4			rlmal			rcal			rtoe			rmt5			lth1			lth2			lth4			lth3			llfc			lmfc			llmal			lcal			lmt5			lsh1			lsh2			lsh3			lsh4			ltoe			SBIKE			LBIKE			RBIKE			
		X1	Y1	Z1	X2	Y2	Z2	X3	Y3	Z3	X4	Y4	Z4	X5	Y5	Z5	X6	Y6	Z6	X7	Y7	Z7	X8	Y8	Z8	X9	Y9	Z9	X10	Y10	Z10	X11	Y11	Z11	X12	Y12	Z12	X13	Y13	Z13	X14	Y14	Z14	X15	Y15	Z15	X16	Y16	Z16	X17	Y17	Z17	X18	Y18	Z18	X19	Y19	Z19	X20	Y20	Z20	X21	Y21	Z21	X22	Y22	Z22	X23	Y23	Z23	X24	Y24	Z24	X25	Y25	Z25	X26	Y26	Z26	X27	Y27	Z27	X28	Y28	Z28	X29	Y29	Z29	X30	Y30	Z30	X31	Y31	Z31	X32	Y32	Z32	X33	Y33	Z33	X34	Y34	Z34	X35	Y35	Z35	X36	Y36	Z36	X37	Y37	Z37	X38	Y38	Z38	X39	Y39	Z39	X40	Y40	Z40	X41	Y41	Z41	X42	Y42	Z42	X43	Y43	Z43	X44	Y44	Z44	X45	Y45	Z45	X46	Y46	Z46	X47	Y47	Z47	X48	Y48	Z48	
751	3.7550	738.889918	1243.481244	-80.369346	738.102799	1238.631623	-390.294577	770.774946	1303.322369	-241.950698	674.816703	1153.649559	-228.361263	580.494968	1067.158909	59.517736	723.737923	924.403705	-42.341560	558.966669	1067.004306	-503.143862	709.657488	942.705353	-410.534131	186.109805	1245.398836	-174.479477	315.640221	1215.600010	-373.689594	336.197284	1146.745770	-47.427022	329.397241	1164.659650	-352.287608	349.394332	1105.215121	-93.761476	231.479516	1269.202088	-152.115722	219.812758	1279.374327	-211.462720	269.460957	1067.284361	-32.768532	289.278865	1182.759194	-398.959764	302.124602	943.318322	-28.645870	328.030439	857.674215	-39.643867	309.273209	773.600549	-48.159418	362.984560	861.757351	-52.239728	297.049828	666.097272	-61.167243	277.898438	648.207608	-174.222407	243.325349	560.432013	-34.431514	224.887228	477.382438	-52.828555	169.132472	409.533071	-54.149482	245.226342	470.513495	-88.212740	123.359687	342.506722	-61.006109	70.593159	370.451038	-108.172955	186.298095	118.299247	-95.566517	122.434003	197.498733	-32.810827	334.881849	1079.577470	-427.897985	410.220582	1036.063502	-428.250876	434.923222	1058.225965	-410.293308	454.494273	958.301027	-434.958115	500.526714	842.797827	-408.333498	508.233870	825.038304	-291.844389	260.761033	545.846149	-382.221004	179.671322	533.249814	-333.530890	359.969485	451.903949	-406.267430	434.429336	748.881135	-426.345008	397.779643	673.166561	-403.981650	325.992171	620.749682	-398.163451	420.366383	661.531074	-374.118863	444.709817	440.198918	-346.074005	-202.886011	870.589195	-208.929950	-49.474466	84.703657	-414.903246	-49.407266	81.525309	-17.464469	
752	3.7600	738.237383	1242.217117	-79.714047	737.414774	1237.479824	-389.442375	770.771737	1302.364644	-240.995851	673.663756	1153.325914	-228.092322	579.562718	1066.305767	59.858282	723.208900	924.292551	-42.453960	556.636423	1066.099781	-500.818515	708.731015	942.885062	-410.295777	185.845818	1247.057094	-175.016648	314.922491	1216.439417	-374.156891	333.960901	1149.178694	-46.568722	328.537779	1164.843827	-352.229350	348.114047	1107.119252	-93.080130	229.686497	1269.580409	-151.790802	219.335881	1280.799231	-212.088504	269.748470	1069.259915	-33.404137	286.724885	1182.432071	-399.768198	304.388100	945.394885	-30.537236	333.204351	860.400656	-42.022978	316.831370	775.514807	-51.223578	367.924951	865.539125	-54.835816	306.660887	668.901873	-64.172590	286.337454	652.842793	-176.108379	249.377632	564.306187	-36.659720	227.438974	482.065790	-55.100877	169.096573	416.720565	-55.483394	247.308635	474.390733	-90.491016	120.205454	350.583190	-62.338905	67.041841	380.819173	-108.263384	177.714405	124.859594	-95.553340	115.742628	205.744499	-33.268667	331.005557	1077.742520	-428.933072	405.581358	1032.776803	-429.280452	430.770453	1054.504299	-411.431601	448.293618	954.096491	-435.476824	492.588118	837.605053	-409.509611	499.842531	818.731430	-292.976450	262.675431	533.683572	-383.072877	182.284499	518.215030	-333.964796	365.388352	443.710432	-407.206207	429.760012	741.955849	-426.600248	395.517670	664.714607	-404.689666	325.429915	610.197056	-398.760359	418.511495	653.935279	-374.709985	450.753009	435.539983	-347.201892	-202.828632	870.629278	-209.288239	-49.477903	84.679593	-415.034027	-49.386921	81.564368	-17.616441	
753	3.7650	737.626461	1241.181926	-78.570503	736.928167	1236.036585	-388.781589	770.777649	1301.567546	-239.739377	672.940021	1152.910515	-227.397648	578.750999	1065.604659	60.276463	722.614502	924.153153	-42.600573	553.973839	1065.163492	-498.770491	707.719394	942.131989	-408.826215	185.587319	1248.205114	-175.849908	314.321938	1216.574077	-374.591128	331.596249	1151.288181	-45.632434	327.744591	1164.623113	-352.091437	346.875628	1108.872402	-91.861507	228.685771	1271.379270	-152.512309	219.047981	1281.842041	-212.832260	269.695465	1071.527439	-32.875954	284.236309	1181.840412	-400.526476	307.509723	947.056369	-32.580082	338.114330	863.024783	-44.488350	325.091479	778.112162	-52.464352	372.888692	869.298416	-56.785151	316.031762	671.721934	-67.001634	294.181666	657.046724	-179.835621	255.343625	568.002721	-38.596325	229.377203	486.405279	-58.204827	169.256813	423.596253	-56.795210	249.173872	478.386572	-92.684471	117.586331	358.813343	-63.145666	65.402672	389.033451	-109.639239	169.709377	131.826001	-95.884312	109.672256	214.139233	-33.723282	327.140988	1075.220159	-429.827786	400.689821	1028.309135	-429.713314	426.640418	1050.614286	-414.110474	441.657442	949.086050	-435.972862	484.597746	831.922820	-410.602967	491.753814	812.194865	-294.147622	264.870537	521.103707	-383.485406	184.768556	503.127209	-334.298774	370.146185	435.172482	-408.855488	424.985246	734.390311	-427.131885	393.255486	655.951167	-405.432621	324.851030	599.345368	-399.271924	416.495498	645.881194	-375.358333	456.169304	429.856703	-348.831461	-202.772389	870.602157	-209.679312	-49.467837	84.612632	-415.185011	-49.390994	81.566693	-17.743245	
754	3.7700	736.888890	1240.443779	-76.997996	736.553896	1234.223728	-388.331059	770.862128	1300.618782	-238.895697	672.065964	1152.549675	-226.536480	578.185838	1064.780433	60.813244	721.931054	924.038045	-42.773441	551.128229	1064.052645	-496.689784	707.000376	942.689833	-409.838952	185.309005	1249.109269	-176.682275	313.833583	1216.043348	-374.992887	329.244429	1153.028354	-44.909069	327.024154	1163.981133	-351.866372	345.469850	1109.940634	-90.700462	227.607406	1273.304113	-153.587466	218.339575	1282.532065	-213.797732	269.466280	1073.840837	-31.529319	282.100129	1180.798816	-401.241734	310.046637	948.900113	-33.860393	343.978346	865.918726	-45.441952	332.874134	780.051153	-55.072666	377.718449	873.229473	-58.521254	325.120843	674.568031	-69.661878	302.502630	660.430394	-182.179550	260.969371	571.708178	-40.486041	231.844613	491.105092	-59.985720	169.605047	430.477423	-57.818246	250.848115	482.424990	-94.776076	115.419388	367.147534	-63.480601	63.319387	398.469609	-109.700296	162.328119	139.233199	-96.287901	104.095996	222.765479	-34.052935	323.248350	1072.106349	-430.506972	395.665062	1023.514722	-430.711027	422.375646	1045.469768	-416.179184	434.469692	943.227573	-436.026683	476.756052	825.553752	-411.554092	484.311103	806.235895	-295.100833	266.813055	508.314637	-383.957946	187.778160	488.072709	-333.519702	374.228472	425.798266	-410.116476	420.205868	725.872905	-428.392361	390.883409	646.782341	-405.943858	324.346567	588.243417	-399.522506	414.681242	637.469100	-375.790273	460.945266	423.253641	-350.863473	-202.698768	870.557638	-210.087778	-49.472717	84.482243	-415.329076	-49.401414	81.569552	-17.856709	
755	3.7750	735.999845	1239.810140	-75.267381	736.385175	1232.043005	-388.035873	770.715115	1299.871800	-237.468749	671.748573	1151.849565	-225.326831	577.821718	1063.956221	61.204671	721.385058	923.988381	-42.874733	548.195979	1062.874691	-494.698032	706.067100	942.417411	-409.426511	185.047886	1249.505967	-177.482578	313.452442	1214.886590	-375.362750	327.058069	1154.329270	-44.335534	326.382947	1162.901509	-351.546656	344.091868	1110.952333	-89.086157	227.714438	1273.778201	-155.394042	217.152102	1283.660232	-214.071414	269.865305	1075.666650	-30.784203	279.938217	1179.193482	-401.664378	313.113713	950.721857	-34.365248	348.968204	868.626784	-47.167096	339.949886	782.640476	-56.900906	382.473738	876.864691	-60.446322	333.668352	677.127511	-72.150401	310.687663	663.054911	-184.154206	266.324067	575.377863	-42.246833	234.479250	496.293259	-60.849045	170.316870	436.860866	-58.728592	252.543918	486.477894	-96.480222	113.317142	375.562606	-63.541351	61.542676	408.032643	-109.726717	155.506961	146.882354	-96.593116	98.997054	231.403091	-34.142701	319.291760	1068.418875	-431.158825	390.513354	1018.227804	-431.714026	417.997145	1039.915694	-418.063134	427.398660	936.988294	-436.564308	468.945949	818.524249	-412.373856	476.355762	798.663499	-296.781961	268.764316	495.162374	-383.339455	190.534292	473.157567	-332.805616	378.175266	415.773628	-410.645341	415.536709	716.874877	-430.082350	388.451200	637.161942	-406.066612	323.636640	576.928085	-399.310828	412.694385	628.735696	-376.197625	465.164344	415.734675	-351.776007	-202.639808	870.470252	-210.460019	-49.494920	84.316437	-415.433477	-49.423597	81.510003	-17.952192	
756	3.7800	734.922369	1239.316900	-73.616136	736.334111	1229.632955	-387.864828	770.599139	1299.092111	-236.179267	671.352995	1151.193947	-224.210814	577.383677	1063.154066	61.578791	719.785426	923.960507	-42.632543	545.383422	1061.555551	-492.612709	705.304226	941.704993	-407.613463	184.808301	1249.703484	-178.341019	313.173536	1213.143162	-375.701296	325.323625	1155.632466	-43.678890	325.827448	1161.367867	-351.124791	343.490815	1112.224745	-87.961656	227.834477	1272.881720	-156.020772	216.823527	1283.535933	-214.937771	270.531588	1077.108577	-30.061588	278.146909	1177.143830	-402.074678	316.314268	952.322672	-35.023552	353.961160	871.390635	-48.727730	346.766668	785.282470	-58.623381	386.949942	880.578473	-62.601867	341.726216	679.311188	-74.263622	318.365008	665.415502	-185.712504	271.443925	578.956373	-43.681956	237.418276	501.097239	-61.677686	171.004965	443.536239	-59.180339	254.819859	490.719788	-97.418526	111.456353	384.023907	-63.462534	60.080443	417.687828	-109.483171	149.437172	155.020540	-96.847764	94.337699	240.357205	-34.233539	315.452138	1064.215936	-431.733808	385.428635	1012.394082	-432.504391	413.512052	1033.690048	-419.778302	420.457119	930.396795	-437.287038	461.049979	811.091502	-413.041663	469.761647	791.361696	-297.612899	270.370308	482.591988	-383.577209	192.848669	458.634007	-332.948130	382.102010	405.919563	-410.407782	410.481891	707.620375	-430.907777	385.779349	627.482275	-406.057969	322.833938	565.488470	-399.008178	410.425923	619.918553	-376.519898	469.003653	407.818492	-351.501723	-202.671085	870.294844	-210.750497	-49.510989	84.146808	-415.496897	-49.427621	81.176809	-18.239688	
757	3.7850	733.641272	1238.926065	-72.195874	736.280687	1227.267242	-388.038433	770.479899	1298.303207	-234.849068	670.678859	1150.705932	-223.176039	576.815323	1062.516726	61.977259	719.304251	923.773395	-42.445087	542.756412	1060.310314	-490.667749	704.488179	941.877928	-407.981381	184.337701	1249.495725	-179.065543	312.991882	1210.852423	-376.009109	322.805843	1155.936698	-44.001756	325.364135	1159.363830	-350.593278	341.311068	1112.273232	-87.901790	229.836558	1273.198384	-157.297363	216.445234	1282.705812	-215.360918	271.359576	1078.396001	-29.127996	276.609452	1174.450695	-402.269870	319.458727	954.173769	-35.480566	358.319813	873.901725	-50.557754	353.087344	788.065849	-60.025030	391.141041	883.951846	-65.038062	349.302564	681.121827	-75.918056	325.163994	667.409361	-186.979361	276.282785	582.461388	-44.768053	239.772717	505.777158	-62.567845	171.509203	450.473015	-59.287109	256.126247	495.088172	-98.667749	109.923426	392.748687	-63.193942	58.794872	427.592880	-108.825952	144.072910	163.483177	-97.205695	90.383326	249.619186	-34.265536	311.717805	1059.643185	-432.418073	380.435905	1006.307409	-433.256801	409.303808	1027.129095	-421.278776	413.643102	923.362242	-437.293017	453.015655	803.462258	-413.939831	463.532628	783.676243	-298.300666	272.188883	470.120297	-383.424598	194.998350	444.497755	-332.697046	385.409801	395.459921	-410.151613	405.297053	698.256662	-431.166276	383.043301	617.621081	-406.091582	321.966169	553.859452	-398.712241	408.190091	610.569011	-376.524914	472.190443	399.051209	-351.646766	-202.790519	870.090506	-210.806685	-49.553245	83.997693	-415.556566	-49.497726	80.985257	-18.285826	
